<svg xmlns="http://www.w3.org/2000/svg" width="1400" height="900" viewBox="0 0 1400 900" fill="none">
  <defs>
    <linearGradient id="bg" x1="0" y1="0" x2="1400" y2="900" gradientUnits="userSpaceOnUse">
      <stop stop-color="#101827"/>
      <stop offset="1" stop-color="#0B1220"/>
    </linearGradient>

    <radialGradient id="searchHalo" cx="0" cy="0" r="1" gradientUnits="userSpaceOnUse" gradientTransform="translate(248 56) scale(560 290)">
      <stop stop-color="#000000" stop-opacity="1"/>
      <stop offset="0.16" stop-color="#000000" stop-opacity="0.92"/>
      <stop offset="0.34" stop-color="#000000" stop-opacity="0.76"/>
      <stop offset="0.52" stop-color="#000000" stop-opacity="0.54"/>
      <stop offset="0.68" stop-color="#000000" stop-opacity="0.32"/>
      <stop offset="0.82" stop-color="#000000" stop-opacity="0.16"/>
      <stop offset="0.93" stop-color="#000000" stop-opacity="0.05"/>
      <stop offset="1" stop-color="#000000" stop-opacity="0"/>
    </radialGradient>

    <linearGradient id="boxBorder" x1="34" y1="24" x2="468" y2="84" gradientUnits="userSpaceOnUse">
      <stop stop-color="#3A465D" stop-opacity="0.70"/>
      <stop offset="1" stop-color="#263347" stop-opacity="0.55"/>
    </linearGradient>

    <linearGradient id="inputBorder" x1="48" y1="34" x2="394" y2="74" gradientUnits="userSpaceOnUse">
      <stop stop-color="#49576E" stop-opacity="0.75"/>
      <stop offset="1" stop-color="#2D3B51" stop-opacity="0.7"/>
    </linearGradient>
  </defs>

  <rect width="1400" height="900" fill="url(#bg)"/>

  <rect x="0" y="0" width="1400" height="900" fill="url(#searchHalo)"/>

  <g transform="translate(24 24)">
    <rect x="0" y="0" width="448" height="62" rx="14" fill="#000000"/>
    <rect x="0.75" y="0.75" width="446.5" height="60.5" rx="13.25" stroke="url(#boxBorder)" stroke-width="1.5"/>

    <rect x="10" y="10" width="374" height="42" rx="10" fill="#050505"/>
    <rect x="10.75" y="10.75" width="372.5" height="40.5" rx="9.25" stroke="url(#inputBorder)" stroke-width="1.5"/>

    <text x="26" y="36" fill="#8EA0B8" font-family="-apple-system, BlinkMacSystemFont, 'Segoe UI', Roboto, sans-serif" font-size="15" letter-spacing="0.2px" dominant-baseline="middle">
      Search in results...
    </text>

    <rect x="394" y="10" width="44" height="42" rx="10" fill="#141414"/>
    <rect x="394.75" y="10.75" width="42.5" height="40.5" rx="9.25" stroke="#39455A" stroke-opacity="0.65" stroke-width="1.5"/>

    <path d="M410 24 L422 38" stroke="#CFD8E5" stroke-width="1.7" stroke-linecap="round"/>
    <path d="M422 24 L410 38" stroke="#CFD8E5" stroke-width="1.7" stroke-linecap="round"/>
  </g>

  <g opacity="0.28">
    <rect x="24" y="112" width="900" height="18" rx="5" fill="#1E293B"/>
    <rect x="24" y="144" width="1240" height="18" rx="5" fill="#1E293B"/>
    <rect x="24" y="176" width="1160" height="18" rx="5" fill="#1E293B"/>
    <rect x="24" y="208" width="1280" height="18" rx="5" fill="#1E293B"/>
  </g>
</svg>
